<svg width="24" height="24" viewBox="0 0 24 24" fill="none" xmlns="http://www.w3.org/2000/svg">
<path d="M2 21H22" stroke="#9C9CA9" stroke-width="2"/>
<path d="M18.5 2.99998L8.5 20.5" stroke="#9C9CA9" stroke-width="2"/>
<path fill-rule="evenodd" clip-rule="evenodd" d="M14.9808 14.4361L16.3343 13.8346L16.0512 14.6838L15.8792 15.1999L16.219 15.6247L16.9193 16.5H13.9999V18.5H18.9999H21.0805L19.7808 16.8753L18.1206 14.8001L18.9486 12.3162L19.6655 10.1654L17.5938 11.0862L16.7415 11.465L14.9808 14.4361ZM11.2828 10.8687L9.70701 9.29288L8.33297 7.91884L8.01351 9.83559L7.65278 12L4.99991 12L3.23372 12L4.14241 13.5145L5.24071 15.345L3.7928 16.7929L2.08569 18.5H4.49991H6.76057L7.94576 16.5H6.91412L7.20701 16.2071L7.7591 15.655L7.3574 14.9855L6.7661 14H8.49991H9.34703L9.4863 13.1644L9.66684 12.0811L10.2304 12.6447L11.2828 10.8687Z" fill="#9C9CA9"/>
</svg>
