<svg width="24" height="24" viewBox="0 0 24 24" fill="none" xmlns="http://www.w3.org/2000/svg">
<path d="M3.247 10.7268C2.41566 11.9175 2 13.4056 2 15C2 18.8127 5.13782 22 9 22H15L22 12.5H16M3.247 10.7268C4.39807 9.07823 6.34604 8.00001 9.09091 8.00001C12.6364 8.00001 14.5 10.4051 14.5 13C14.5 13.9516 14.2823 14.8144 13.8863 15.5452M3.247 10.7268L7.5 5.00001C9.10355 2.84076 12.1812 1.33834 15.5 3.00001C18.8188 4.66168 19 8.00001 18 9.50001L13.8863 15.5452M13.8863 15.5452C13.0686 17.0543 11.4906 18 9.5 18C7.13636 18 6.13636 16.5 6.13636 15C6.13636 12.9511 7.90909 12.0833 9.68182 12.6667" stroke="#9C9CA9" stroke-width="2"/>
</svg>
