<svg width="24" height="24" viewBox="0 0 24 24" fill="none" xmlns="http://www.w3.org/2000/svg">
<circle cx="12" cy="7" r="4" stroke="#9C9CA9" stroke-width="2"/>
<path fill-rule="evenodd" clip-rule="evenodd" d="M5.5 7H5.30278L3 5.46482V4H6.23221C6.6335 3.23006 7.18442 2.55054 7.84643 2H2H1V3V6V6.53518L1.4453 6.83205L4.4453 8.83205L4.69722 9H5H5.8135C5.60996 8.36994 5.5 7.69781 5.5 7ZM18.1865 9H19H19.3028L19.5547 8.83205L22.5547 6.83205L23 6.53518V6V3V2H22H16.1536C16.8156 2.55054 17.3665 3.23006 17.7678 4H21V5.46482L18.6972 7H18.5C18.5 7.69781 18.39 8.36994 18.1865 9Z" fill="#9C9CA9"/>
<path d="M8 18C8 20.2091 9.79086 22 12 22C14.2091 22 16 20.2091 16 18C16 15.7909 14.2091 14 12 14V11" stroke="#9C9CA9" stroke-width="2"/>
</svg>
