<svg width="24" height="24" viewBox="0 0 24 24" fill="none" xmlns="http://www.w3.org/2000/svg">
<path fill-rule="evenodd" clip-rule="evenodd" d="M2 2H12.9091V7.45455H11.5455V9.27273C11.5455 11.03 12.97 12.4545 14.7273 12.4545H16.5455V11.0909H22V22H16.5455V21.0909H14.0455C7.89501 21.0909 2.90909 16.105 2.90909 9.95455V7.45455H2V2ZM16.5455 19.2727V14.2727H14.7273C11.9658 14.2727 9.72727 12.0342 9.72727 9.27273V7.45455H4.72727V9.95455C4.72727 15.1008 8.89917 19.2727 14.0455 19.2727H16.5455ZM18.3636 20.1818H20.1818V12.9091H18.3636V20.1818ZM11.0909 3.81818V5.63636H3.81818V3.81818H11.0909Z" fill="#9C9CA9"/>
</svg>
