<svg width="24" height="24" viewBox="0 0 24 24" fill="none" xmlns="http://www.w3.org/2000/svg">
<path fill-rule="evenodd" clip-rule="evenodd" d="M2 1H12.0435L9.7033 5.91981V9.40558L9.98596 9.50462C10.4543 9.66872 10.7074 10.2008 10.5513 10.6931C10.4264 11.0869 10.0776 11.3359 9.7033 11.3359V13.164L9.98596 13.263C10.4543 13.4271 10.7074 13.9592 10.5513 14.4515C10.4264 14.8453 10.0776 15.0943 9.7033 15.0943V16.9224L9.98596 17.0214C10.4543 17.1855 10.7074 17.7176 10.5513 18.2099C10.4264 18.6037 10.0776 18.8527 9.7033 18.8527V20.1812L7.02172 23L4.34014 20.1812V17.024L4.05747 16.925C3.58914 16.7609 3.33604 16.2288 3.49215 15.7365C3.61701 15.3427 3.96585 15.0937 4.34014 15.0937V13.2656L4.05747 13.1666C3.58914 13.0025 3.33604 12.4704 3.49215 11.9781C3.61701 11.5843 3.96585 11.3353 4.34014 11.3353V9.50723L4.05747 9.40819C3.58914 9.24409 3.33604 8.71197 3.49215 8.21967C3.61701 7.82591 3.96585 7.57689 4.34014 7.57695V5.91981L2 1ZM6.12786 6.6376V8.15278L7.91558 8.77918V6.6376H6.12786ZM8.25701 4.7584L9.15087 2.8792H4.89258L5.78644 4.7584H8.25701ZM7.91558 10.76L6.12786 10.1336V11.9112L7.91558 12.5376V10.76ZM7.91558 14.5184L6.12786 13.892V15.6696L7.91558 16.296V14.5184ZM7.91558 18.2768L6.12786 17.6504V19.4028L7.02172 20.3424L7.91558 19.4028V18.2768Z" fill="#9C9CA9"/>
<path fill-rule="evenodd" clip-rule="evenodd" d="M16.5217 1L19.2609 3.8188L19.2609 13.604H20.1739V17.3624H22V23H11.0435L11.0435 17.3624H12.8696V13.604H13.7826L13.7826 3.8188L16.5217 1ZM15.6087 13.604L17.4348 13.604V4.59719L16.5217 3.65759L15.6087 4.59719L15.6087 13.604ZM18.3478 15.4832H14.6957L14.6957 17.3624L18.3478 17.3624V15.4832ZM20.1739 19.2416H12.8696V21.1208H20.1739V19.2416Z" fill="#9C9CA9"/>
</svg>
