<svg width="24" height="24" viewBox="0 0 24 24" fill="none" xmlns="http://www.w3.org/2000/svg">
<path d="M2 13H10V21H2V13Z" fill="white"/>
<path d="M2 13H10M2 13V21M2 13L7 8H15M10 13V21M10 13L15 8M10 13L2 21M10 21H2M10 21L15 16V8" stroke="#9C9CA9" stroke-width="2"/>
<path d="M3 9H7H10L15 4H8L3 9Z" fill="white"/>
<path d="M10 9V13L15 8V4L10 9Z" fill="white"/>
<path d="M3 9V13L7 9H3Z" fill="white"/>
<path d="M3 9V13M3 9L8 4H15M3 9H7M10 9V13M10 9L15 4M10 9H7M10 13H3M10 13L15 8V4M3 13L7 9" stroke="#9C9CA9" stroke-width="2"/>
<path d="M16.9749 15.0251C18.3417 16.392 18.3417 18.608 16.9749 19.9749C15.608 21.3417 13.392 21.3417 12.0251 19.9749C10.6583 18.608 10.6583 16.392 12.0251 15.0251C13.392 13.6583 15.608 13.6583 16.9749 15.0251Z" fill="white"/>
<path d="M20.9749 15.9749C22.3417 14.608 22.3417 12.392 20.9749 11.0251C19.608 9.65829 17.392 9.65829 16.0251 11.0251L12.0251 15.0251C13.392 13.6583 15.608 13.6583 16.9749 15.0251C18.3417 16.392 18.3417 18.608 16.9749 19.9749L20.9749 15.9749Z" fill="white"/>
<path d="M16.9749 19.9749C18.3417 18.608 18.3417 16.392 16.9749 15.0251C15.608 13.6583 13.392 13.6583 12.0251 15.0251M16.9749 19.9749C15.608 21.3417 13.392 21.3417 12.0251 19.9749C10.6583 18.608 10.6583 16.392 12.0251 15.0251M16.9749 19.9749L20.9749 15.9749C22.3417 14.608 22.3417 12.392 20.9749 11.0251C19.608 9.65829 17.392 9.65829 16.0251 11.0251L12.0251 15.0251" stroke="#9C9CA9" stroke-width="2"/>
</svg>
