<?xml version="1.0" standalone="no"?>
<!DOCTYPE svg PUBLIC "-//W3C//DTD SVG 20010904//EN"
 "http://www.w3.org/TR/2001/REC-SVG-20010904/DTD/svg10.dtd">
<svg version="1.0" xmlns="http://www.w3.org/2000/svg"
 width="141.000000pt" height="110.000000pt" viewBox="0 0 141.000000 110.000000"
 preserveAspectRatio="xMidYMid meet">

<g transform="translate(0.000000,110.000000) scale(0.100000,-0.100000)"
fill="#9C9CA9" stroke="none">
<path d="M302 807 l-272 -272 0 -253 0 -252 408 0 407 0 272 277 273 278 0
248 0 247 -113 0 -112 0 -253 -253 -253 -253 16 -37 c16 -38 28 -43 97 -38
l27 2 3 -183 c2 -101 2 -195 0 -210 l-3 -28 -360 0 c-280 0 -359 3 -360 13 -6
116 -2 397 6 398 6 0 46 2 89 4 l79 3 154 154 153 153 0 -104 0 -103 -122
-125 c-68 -68 -124 -127 -126 -132 -1 -4 5 -14 13 -21 14 -12 33 4 151 121
l134 134 0 140 0 140 72 72 71 72 -12 40 -12 41 -77 0 -77 0 -273 -273z m398
215 c0 -4 -107 -114 -237 -244 l-238 -236 -50 3 c-27 1 -52 3 -55 4 -3 0 103
109 235 241 l240 240 52 0 c29 0 53 -3 53 -8z m640 -205 l0 -213 -239 -242
c-132 -133 -242 -242 -245 -242 -3 0 -6 96 -6 213 l0 212 -60 -2 c-33 0 -63 4
-66 9 -4 6 99 116 227 244 l234 234 77 0 78 0 0 -213z"/>
<path d="M247 282 c-13 -14 -14 -21 -5 -30 16 -16 33 -15 47 1 8 11 7 18 -7
31 -18 15 -20 15 -35 -2z"/>
</g>
</svg>
