<svg width="24" height="24" viewBox="0 0 24 24" fill="none" xmlns="http://www.w3.org/2000/svg">
<path d="M18.1667 11.4167C18.1667 13.75 14.1222 14.3333 10.5833 14.3333C7.04444 14.3333 3 13.75 3 11.4167M18.1667 16.0833C18.1667 18.4167 14.1222 19 10.5833 19C7.04444 19 3 18.4167 3 16.0833M18.1667 7.33333C18.1667 9.08333 14.7715 9.66667 10.5833 9.66667C6.39517 9.66667 3 9.08333 3 7.33333C3 5.58333 6.39517 5 10.5833 5" stroke="#9C9CA9" stroke-width="2"/>
<path d="M18.1666 7.33334C18.1666 7.91668 17.5833 8.70223 17.5833 9.66668C17.5833 10.4378 18.1666 11.1575 18.1666 11.4167" stroke="#9C9CA9" stroke-width="2"/>
<path d="M2.99991 7.33334C2.99992 7.91668 3.58325 8.70223 3.58325 9.66668C3.58325 10.4378 2.99992 11.1575 2.99992 11.4167" stroke="#9C9CA9" stroke-width="2"/>
<path d="M18.1666 11.4167C18.1666 12.5833 17.5833 12.9603 17.5833 14.3333C17.5833 15.3677 18.1666 15.5 18.1666 16.0833" stroke="#9C9CA9" stroke-width="2"/>
<path d="M2.99992 11.4167C2.99992 12.5833 3.58325 12.9603 3.58325 14.3333C3.58325 15.3677 2.99992 15.5 2.99992 16.0833" stroke="#9C9CA9" stroke-width="2"/>
<path d="M10.5833 5H21.4999" stroke="#9C9CA9" stroke-width="2"/>
</svg>
