<svg width="24" height="24" viewBox="0 0 24 24" fill="none" xmlns="http://www.w3.org/2000/svg">
<path d="M13.5 15.5C13.5 16.1116 13.1339 16.6378 12.6089 16.8712L13 20H11L11.3911 16.8712C10.8661 16.6378 10.5 16.1116 10.5 15.5C10.5 14.6716 11.1716 14 12 14C12.8284 14 13.5 14.6716 13.5 15.5Z" fill="#9C9CA9"/>
<path fill-rule="evenodd" clip-rule="evenodd" d="M8 6.25805C8 4.51002 9.51422 2.99998 11.5 2.99998C13.4858 2.99998 15 4.51002 15 6.25805V11H3V23H21V11H17V6.25805C17 3.30275 14.4848 0.999985 11.5 0.999985C8.51522 0.999985 6 3.30275 6 6.25805V7.99998H8V6.25805ZM5 21V13H19V21H5Z" fill="#9C9CA9"/>
</svg>
