<svg width="24" height="24" viewBox="0 0 24 24" fill="none" xmlns="http://www.w3.org/2000/svg">
<path fill-rule="evenodd" clip-rule="evenodd" d="M2.57774 1.99998L15.3766 1.99998V2.95237H19.1883V4.85713H23V6.76189H19.1883V8.66665H15.3766V10.5714H11.285C11.2537 10.7088 11.2298 10.8586 11.2194 11.0132C11.1925 11.4146 11.2632 11.7355 11.4049 11.9479C11.5614 12.1826 11.7409 12.5225 11.7341 12.9228C11.7257 13.4242 11.4376 13.7853 11.1031 13.9782C10.8255 14.1382 10.5218 14.1855 10.3067 14.2037C10.0723 14.2234 9.82429 14.2166 9.59115 14.1999C9.1402 14.1678 8.63807 14.0898 8.22376 14.0256L8.18776 14.02C8.09965 14.0063 8.01765 13.9937 7.9416 13.9823L7.41116 16.951C8.23024 17.4185 8.70612 18.3919 8.70612 19.3333C8.70612 20.6361 7.79482 22 6.3238 22H1L2.03846 9.54561L2.57774 1.99998ZM8.27679 12.1063C8.32827 12.1142 8.37906 12.1221 8.42872 12.1298L8.48 12.1377C8.82409 12.1911 9.16335 12.2436 9.47105 12.2768C9.31788 11.7978 9.28936 11.3102 9.31781 10.8858C9.32491 10.7799 9.33573 10.6749 9.34981 10.5714H8.55103L8.27679 12.1063ZM3.86538 10.5714H6.61503L5.18564 18.5714H6.3238C6.39282 18.5714 6.49548 18.6025 6.60248 18.7308C6.71117 18.8612 6.80027 19.0711 6.80027 19.3333C6.80027 19.5955 6.71117 19.8054 6.60248 19.9358C6.49548 20.0641 6.39282 20.0952 6.3238 20.0952H3.07128L3.86538 10.5714ZM13.4707 8.66665H4.01199L4.35232 3.90475H13.4707V8.66665ZM15.3766 6.76189V4.85713H17.2824V6.76189H15.3766Z" fill="#9C9CA9"/>
</svg>
