<svg width="24" height="24" viewBox="0 0 24 24" fill="none" xmlns="http://www.w3.org/2000/svg">
<path d="M11.5 9.24999L11.6627 8.84335C12.7822 6.04452 10.7209 2.99999 7.7065 2.99999V2.99999C4.85833 2.99999 2.81202 5.74054 3.62115 8.47136L5.77478 15.7399C5.92249 16.2384 5.94081 16.7663 5.82802 17.2739L5.65079 18.0714C5.31681 19.5743 6.46044 21 8 21V21C9.53956 21 10.6832 19.5743 10.3492 18.0714L10.1448 17.1516C10.0493 16.7219 10.0446 16.277 10.1309 15.8454L11 11.5" stroke="#9C9CA9" stroke-width="2"/>
<rect x="16" y="8.99999" width="4" height="6" stroke="#9C9CA9" stroke-width="2"/>
<path d="M20 4.99999C20 3.89542 19.1046 2.99999 18 2.99999C16.8954 2.99999 16 3.89542 16 4.99999C16 6.10456 16.8954 6.99999 18 6.99999V8.99999M18 17V14.5" stroke="#9C9CA9" stroke-width="2"/>
<circle cx="18" cy="19" r="2" stroke="#9C9CA9" stroke-width="2"/>
</svg>
