<?xml version="1.0" encoding="UTF-8"?>
<svg xmlns="http://www.w3.org/2000/svg" xmlns:xlink="http://www.w3.org/1999/xlink" width="24px" height="20px" viewBox="0 0 23 20" version="1.1">
<g id="surface1">
<path style=" stroke:none;fill-rule:evenodd;fill:rgb(0%,0%,0%);fill-opacity:1;" d="M 1.9375 0 L 21.039062 0 C 22.105469 0 22.976562 0.898438 22.976562 1.992188 C 22.976562 3.089844 22.105469 3.988281 21.039062 3.988281 L 1.9375 3.988281 C 0.871094 3.988281 0 3.089844 0 1.992188 C 0 0.898438 0.871094 0 1.9375 0 Z M 1.9375 15.9375 L 21.039062 15.9375 C 22.105469 15.9375 22.976562 16.835938 22.976562 17.929688 C 22.976562 19.027344 22.105469 19.925781 21.039062 19.925781 L 1.9375 19.925781 C 0.871094 19.925781 0 19.027344 0 17.929688 C 0 16.835938 0.871094 15.9375 1.9375 15.9375 Z M 1.9375 7.96875 L 21.039062 7.96875 C 22.105469 7.96875 22.976562 8.867188 22.976562 9.960938 C 22.976562 11.058594 22.105469 11.957031 21.039062 11.957031 L 1.9375 11.957031 C 0.871094 11.957031 0 11.058594 0 9.960938 C 0 8.867188 0.871094 7.96875 1.9375 7.96875 Z M 1.9375 7.96875 "/>
</g>
</svg>
