<svg width="24" height="24" viewBox="0 0 24 24" fill="none" xmlns="http://www.w3.org/2000/svg">
<path d="M9.75408 19.1053C9.75408 20.1517 8.88311 21 7.80873 21C6.73434 21 5.86338 20.1517 5.86338 19.1053C5.86338 18.0588 6.73434 17.2105 7.80873 17.2105C8.88311 17.2105 9.75408 18.0588 9.75408 19.1053Z" fill="white"/>
<path d="M19.4808 19.1053C19.4808 20.1517 18.6099 21 17.5355 21C16.4611 21 15.5901 20.1517 15.5901 19.1053C15.5901 18.0588 16.4611 17.2105 17.5355 17.2105C18.6099 17.2105 19.4808 18.0588 19.4808 19.1053Z" fill="white"/>
<path d="M1 3V4.89474H3.29171L8.15508 15.3158H18.1366L19.1093 13.4211H9.40772L4.54434 3H1Z" fill="white"/>
<path d="M17.4207 12.4737H19.5956L20.3251 11.0526H18.1502L17.4207 12.4737Z" fill="white"/>
<path d="M21.541 8.68421L20.8115 10.1053H18.6365L19.366 8.68421H21.541Z" fill="white"/>
<path d="M22.0273 7.73684L23 5.84211H8.7814V7.73684H22.0273Z" fill="white"/>
</svg>
