<svg width="32" height="32" viewBox="0 0 32 32" fill="none" xmlns="http://www.w3.org/2000/svg">
<path fill-rule="evenodd" clip-rule="evenodd" d="M21.32 24.8233C21.5883 25.0057 21.9341 25.0513 22.2425 24.9393C22.5508 24.8265 22.7775 24.5737 22.8458 24.2673C23.5699 21.0001 25.3266 12.7305 25.9857 9.75852C26.0357 9.53452 25.9524 9.30172 25.7691 9.15212C25.5857 9.00252 25.3316 8.95932 25.1049 9.04012C21.6108 10.2817 10.8502 14.1577 6.45199 15.7201C6.17283 15.8193 5.99117 16.0769 6.00033 16.3593C6.01033 16.6425 6.20866 16.8881 6.49449 16.9705C8.46694 17.5369 11.056 18.3249 11.056 18.3249C11.056 18.3249 12.266 21.8329 12.8968 23.6169C12.976 23.8409 13.1585 24.0169 13.3993 24.0777C13.6393 24.1377 13.896 24.0745 14.0751 23.9121C15.0885 22.9937 16.6551 21.5737 16.6551 21.5737C16.6551 21.5737 19.6317 23.6689 21.32 24.8233ZM12.1452 17.8817L13.5443 22.3121L13.8552 19.5065C13.8552 19.5065 19.2609 14.8257 22.3425 12.1577C22.4325 12.0793 22.445 11.9481 22.37 11.8561C22.2958 11.7641 22.1591 11.7425 22.0566 11.8049C18.485 13.9945 12.1452 17.8817 12.1452 17.8817Z" fill="white"/>
</svg>
