<svg width="32" height="32" viewBox="0 0 32 32" fill="none" xmlns="http://www.w3.org/2000/svg">
<path d="M4 28L5.69505 21.837C4.64908 20.033 4.09947 17.988 4.10048 15.891C4.10349 9.335 9.46395 4 16.0502 4C19.2464 4.001 22.2467 5.24 24.5034 7.488C26.7591 9.736 28.001 12.724 28 15.902C27.997 22.459 22.6365 27.794 16.0502 27.794C14.0507 27.793 12.0804 27.294 10.3351 26.346L4 28ZM10.6285 24.193C12.3125 25.188 13.9201 25.784 16.0462 25.785C21.5202 25.785 25.9794 21.351 25.9824 15.9C25.9844 10.438 21.5463 6.01 16.0543 6.008C10.5762 6.008 6.12007 10.442 6.11806 15.892C6.11706 18.117 6.77217 19.783 7.87239 21.526L6.86863 25.174L10.6285 24.193ZM22.0698 18.729C21.9955 18.605 21.7965 18.531 21.4971 18.382C21.1987 18.233 19.7307 17.514 19.4564 17.415C19.1831 17.316 18.9842 17.266 18.7842 17.564C18.5853 17.861 18.0126 18.531 17.8387 18.729C17.6649 18.927 17.4901 18.952 17.1917 18.803C16.8932 18.654 15.9307 18.341 14.7903 17.328C13.903 16.54 13.3032 15.567 13.1294 15.269C12.9555 14.972 13.1113 14.811 13.26 14.663C13.3946 14.53 13.5584 14.316 13.7081 14.142C13.8598 13.97 13.9091 13.846 14.0095 13.647C14.109 13.449 14.0598 13.275 13.9844 13.126C13.9091 12.978 13.3122 11.515 13.0641 10.92C12.8209 10.341 12.5747 10.419 12.3919 10.41L11.8191 10.4C11.6202 10.4 11.2967 10.474 11.0234 10.772C10.7501 11.07 9.9784 11.788 9.9784 13.251C9.9784 14.714 11.0485 16.127 11.1972 16.325C11.3469 16.523 13.3022 19.525 16.2974 20.812C17.0098 21.118 17.5664 21.301 17.9995 21.438C18.7149 21.664 19.366 21.632 19.8804 21.556C20.4542 21.471 21.6468 20.837 21.896 20.143C22.1452 19.448 22.1452 18.853 22.0698 18.729Z" fill="#333"/>
</svg>
