<svg width="24" height="24" viewBox="0 0 24 24" fill="none" xmlns="http://www.w3.org/2000/svg">
<path d="M12 11.5C13.1046 11.5 14 10.6046 14 9.5C14 8.39543 13.1046 7.5 12 7.5C10.8954 7.5 10 8.39543 10 9.5C10 10.6046 10.8954 11.5 12 11.5Z" fill="white"/>
<path fill-rule="evenodd" clip-rule="evenodd" d="M12 2C8.08516 2 5 5.31125 5 9.3C5 11.9416 6.20847 14.6121 7.4929 16.7266C8.79202 18.8653 10.2509 20.5669 10.9119 21.2978C11.4976 21.9454 12.5024 21.9454 13.0881 21.2978C13.7491 20.5669 15.208 18.8653 16.5071 16.7266C17.7915 14.6121 19 11.9416 19 9.3C19 5.31125 15.9148 2 12 2ZM7 9.3C7 6.32275 9.28056 4 12 4C14.7194 4 17 6.32275 17 9.3C17 11.3887 16.0206 13.6751 14.7978 15.6883C13.8044 17.3236 12.7031 18.6938 12 19.5085C11.2969 18.6938 10.1956 17.3236 9.20225 15.6883C7.97937 13.6751 7 11.3887 7 9.3Z" fill="white"/>
</svg>
