<svg width="140" height="48" viewBox="0 0 140 48" fill="none" xmlns="http://www.w3.org/2000/svg">
<g clip-path="url(#clip0)">
<path fill-rule="evenodd" clip-rule="evenodd" d="M77.7581 30.7312H72.4118C71.923 30.7342 71.5289 30.826 71.2266 31.0033C70.9265 31.1813 70.7079 31.4229 70.5731 31.7304C70.4354 32.0348 70.3678 32.3795 70.3704 32.7668V36.2554C70.3678 36.6407 70.4354 36.9881 70.5731 37.2918C70.7079 37.5989 70.9265 37.8409 71.2266 38.0189C71.5289 38.1969 71.9226 38.2857 72.4118 38.291H77.7581C78.2469 38.2857 78.6437 38.1969 78.9434 38.0189C79.2435 37.8409 79.4617 37.5993 79.5968 37.2918C79.735 36.9881 79.8025 36.6407 79.7995 36.2554V32.7668C79.8025 32.3795 79.735 32.0348 79.5968 31.7304C79.4617 31.4233 79.2435 31.1813 78.9434 31.0033C78.6437 30.826 78.2469 30.7342 77.7581 30.7312ZM73.0921 32.7664H77.0775V36.255H73.0921V32.7664ZM87.7696 30.8283H90.4912V38.2902H87.7696V33.7516L85.7448 35.8354L83.7196 33.7516V38.2906H80.998V30.8283H83.7196L85.761 32.8635L87.7696 30.8283ZM94.4446 38.2902V32.9606H97.7494V38.2902H100.471V30.9254H91.723V38.2902H94.4446ZM107.794 32.9606H104.489V38.2902H101.184V36.1587H101.767V32.9606C101.765 32.5726 101.832 32.2286 101.97 31.9242C102.104 31.6171 102.323 31.3744 102.623 31.1971C102.926 31.0191 103.32 30.928 103.809 30.925H110.515V38.2898H107.793V32.9606H107.794ZM118.47 33.6384V32.9606H114.484V36.255H120.916V38.2902H113.804C113.315 38.2849 112.921 38.1961 112.618 38.0181C112.319 37.8401 112.1 37.5985 111.965 37.291C111.827 36.9873 111.76 36.64 111.763 36.2546V32.9602C111.76 32.5722 111.828 32.2282 111.965 31.9238C112.1 31.6167 112.319 31.374 112.618 31.1967C112.921 31.0187 113.315 30.9276 113.804 30.9246H118.874C119.363 30.9276 119.76 31.0187 120.06 31.1967C120.359 31.374 120.578 31.6163 120.713 31.9238C120.85 32.2282 120.918 32.5722 120.915 32.9602V35.5761H115.18V33.638H118.47V33.6384ZM122.082 30.9254H124.804V33.2511H128.109V30.9254H130.928V32.8797C130.925 33.1224 130.877 33.3347 130.782 33.5198C130.691 33.7057 130.569 33.8645 130.423 33.994C130.274 34.1235 130.121 34.2224 129.959 34.2954C129.794 34.3681 129.643 34.4136 129.502 34.4302C129.643 34.4603 129.794 34.519 129.959 34.6108C130.121 34.6989 130.274 34.82 130.423 34.9687C130.569 35.1166 130.691 35.2942 130.782 35.4956C130.877 35.6977 130.925 35.9242 130.928 36.1748V38.2902H128.109V35.4794H124.804V38.2902H122.082V30.9254ZM131.835 30.9254V32.9606H134.557V38.2902H137.279V32.9606H140V30.9254H131.835Z" fill="white"/>
<path fill-rule="evenodd" clip-rule="evenodd" d="M57.9216 19.687V11.4484H67.7489V17.0151C67.7425 17.9431 67.6187 18.7654 67.3707 19.4951C67.1163 20.2188 66.7875 20.8499 66.3655 21.3937C65.9499 21.9322 65.4844 22.3898 64.9696 22.7669C64.4543 23.138 63.9334 23.4353 63.3936 23.6577C63.933 23.8805 64.4543 24.1898 64.9696 24.5914C65.4841 24.9933 65.9499 25.4822 66.3655 26.0692C66.7875 26.6514 67.1163 27.3311 67.3707 28.1044C67.6191 28.8774 67.7429 29.7434 67.7489 30.7087V37.7231H57.9216V27.4805H48.5409V19.687H57.9216Z" fill="white"/>
<path fill-rule="evenodd" clip-rule="evenodd" d="M47.4567 0V23.2953L33.6689 27.0997V14.8655L23.7287 25.6282L13.7882 14.8655V37.7231H0V0H13.7882L23.7287 10.5497L33.6689 0H47.4567ZM47.4567 28.0774L33.6689 31.8825V33.4687L47.4567 29.6636V28.0774ZM47.4567 34.446L33.6689 38.2504V39.8374L47.4567 36.0323V34.446ZM47.4567 40.8151V44.1953L33.6689 47.9996V44.6194L47.4567 40.8151Z" fill="white"/>
<path fill-rule="evenodd" clip-rule="evenodd" d="M55.0448 5.39892V4.79076H51.4712V7.74497H57.2383V9.5698H50.8616C50.4233 9.56491 50.07 9.4855 49.7986 9.32594C49.5298 9.16675 49.3339 8.94961 49.2131 8.67451C49.0893 8.40167 49.0289 8.09082 49.0312 7.74535V4.79114C49.0289 4.44379 49.0893 4.13482 49.2131 3.8616C49.3339 3.58688 49.5298 3.36936 49.7986 3.2098C50.07 3.05098 50.4233 2.96857 50.8616 2.96631H55.4083C55.8462 2.96857 56.2022 3.05061 56.4709 3.2098C56.7397 3.36936 56.936 3.58688 57.0572 3.8616C57.1802 4.13444 57.2406 4.44379 57.2387 4.79114V7.13719H52.0959V5.39967H55.0448V5.39892ZM58.0809 2.96631V4.79076H60.5213V9.5698H62.9613V4.79076H65.4017V2.96631H58.0809ZM66.1861 2.96631V9.5698H68.5393L72.1126 5.64504V9.56943H74.553V2.96631H72.0254L68.6265 6.70253V2.96631H66.1861ZM75.6129 2.96631V4.79076H80.4065V5.39929H77.5305V7.13682H80.4065V7.74497H75.6129V9.5698H81.1041C81.542 9.56491 81.8976 9.4855 82.1664 9.32594C82.4351 9.16675 82.6314 8.94961 82.7526 8.67451C82.8764 8.40167 82.9368 8.09082 82.9345 7.74535C82.9319 7.5282 82.8885 7.32536 82.8035 7.13983C82.7186 6.95354 82.6125 6.7921 82.4838 6.6521C82.3555 6.51248 82.2245 6.40335 82.0916 6.3262C82.2249 6.28518 82.3555 6.20841 82.4838 6.09475C82.6125 5.98374 82.7186 5.82229 82.8035 5.6123C82.8881 5.39967 82.9319 5.12683 82.9345 4.79152C82.9372 4.44416 82.8639 4.1352 82.7186 3.86198C82.5733 3.58726 82.346 3.36974 82.0357 3.21017C81.7285 3.05136 81.3314 2.96894 80.8422 2.96668H75.6129V2.96631Z" fill="white"/>
</g>
<defs>
<clipPath id="clip0">
<rect width="140" height="48" fill="white"/>
</clipPath>
</defs>
</svg>
