<svg width="48" height="32" viewBox="0 0 48 32" fill="none" xmlns="http://www.w3.org/2000/svg">
<path fill-rule="evenodd" clip-rule="evenodd" d="M39.3305 13.1247V7.63226H45.8338V11.3434C45.8296 11.9621 45.7477 12.5103 45.5835 12.9967C45.4152 13.4792 45.1976 13.8999 44.9183 14.2625C44.6433 14.6215 44.3353 14.9266 43.9945 15.178C43.6536 15.4253 43.3088 15.6235 42.9516 15.7718C43.3086 15.9203 43.6536 16.1266 43.9945 16.3943C44.335 16.6622 44.6433 16.9881 44.9183 17.3795C45.1976 17.7676 45.4152 18.2207 45.5835 18.7363C45.7479 19.2516 45.8298 19.8289 45.8338 20.4725V25.1488H39.3305V18.3203H33.1226V13.1247H39.3305Z" fill="white"/>
<path fill-rule="evenodd" clip-rule="evenodd" d="M32.4052 0V15.5302L23.2809 18.0664V9.91032L16.7028 17.0855L10.1245 9.91032V25.1488H1V0H10.1245L16.7028 7.03314L23.2809 0H32.4052ZM32.4052 18.7182L23.2809 21.255V22.3125L32.4052 19.7757V18.7182ZM32.4052 22.964L23.2809 25.5002V26.5582L32.4052 24.0215V22.964ZM32.4052 27.21V29.4635L23.2809 31.9997V29.7463L32.4052 27.21Z" fill="white"/>
</svg>
