<svg width="40" height="40" viewBox="0 0 40 40" fill="none" xmlns="http://www.w3.org/2000/svg">
<path d="M13.3581 18.5062C15.1358 22 18 24.8519 21.4939 26.642L24.2099 23.926C24.5432 23.5926 25.0371 23.4815 25.4692 23.6297C26.8519 24.0864 28.3457 24.3334 29.8766 24.3334C30.5556 24.3334 31.1111 24.8889 31.1111 25.5679V29.8766C31.1111 30.5556 30.5556 31.1111 29.8766 31.1111C18.284 31.1111 8.88892 21.7161 8.88892 10.1235C8.88892 9.44447 9.44447 8.88892 10.1235 8.88892H14.4445C15.1235 8.88892 15.679 9.44447 15.679 10.1235C15.679 11.6667 15.926 13.1482 16.3827 14.5309C16.5185 14.963 16.4198 15.4445 16.0741 15.7902L13.3581 18.5062Z" fill="white"/>
</svg>
