<svg width="18" height="18" viewBox="0 0 18 18" fill="none" xmlns="http://www.w3.org/2000/svg">
<path d="M6.01111 8.32778C6.81111 9.9 8.1 11.1833 9.67222 11.9889L10.8944 10.7667C11.0444 10.6167 11.2667 10.5667 11.4611 10.6333C12.0833 10.8389 12.7556 10.95 13.4444 10.95C13.75 10.95 14 11.2 14 11.5056V13.4444C14 13.75 13.75 14 13.4444 14C8.22778 14 4 9.77222 4 4.55556C4 4.25 4.25 4 4.55556 4H6.5C6.80556 4 7.05556 4.25 7.05556 4.55556C7.05556 5.25 7.16667 5.91667 7.37222 6.53889C7.43333 6.73333 7.38889 6.95 7.23333 7.10556L6.01111 8.32778Z" fill="#EE3831"/>
</svg>
