<svg width="24" height="24" viewBox="0 0 24 24" fill="none" xmlns="http://www.w3.org/2000/svg">
<path fill-rule="evenodd" clip-rule="evenodd" d="M5.03308 10.6241C5.03308 7.53625 7.53625 5.03308 10.6241 5.03308C13.7119 5.03308 16.215 7.53625 16.215 10.6241C16.215 13.7119 13.7119 16.215 10.6241 16.215C7.53625 16.215 5.03308 13.7119 5.03308 10.6241ZM10.6241 3C6.41341 3 3 6.41341 3 10.6241C3 14.8347 6.41341 18.2481 10.6241 18.2481C12.3629 18.2481 13.9658 17.666 15.2484 16.686L19.5624 21L21 19.5624L16.686 15.2484C17.666 13.9658 18.2481 12.3629 18.2481 10.6241C18.2481 6.41341 14.8347 3 10.6241 3Z" fill="white"/>
</svg>
