<svg width="32" height="32" viewBox="0 0 32 32" fill="none" xmlns="http://www.w3.org/2000/svg">
<path fill-rule="evenodd" clip-rule="evenodd" d="M26.1864 10.6125C26.33 10.1336 26.1864 9.78168 25.5029 9.78168H23.2426C22.6679 9.78168 22.4029 10.0857 22.2592 10.4209C22.2592 10.4209 21.1098 13.2226 19.4815 15.0425C18.9547 15.5693 18.7152 15.7369 18.4279 15.7369C18.2842 15.7369 18.0762 15.5693 18.0762 15.0904V10.6125C18.0762 10.0378 17.9095 9.78168 17.4305 9.78168H13.8786C13.5195 9.78168 13.3035 10.0484 13.3035 10.3012C13.3035 10.846 14.1176 10.9717 14.2015 12.5042V15.8327C14.2015 16.5625 14.0697 16.6948 13.7824 16.6948C13.0162 16.6948 11.1523 13.8806 10.0468 10.6604C9.83017 10.0345 9.61288 9.78168 9.03522 9.78168H6.77495C6.12916 9.78168 6 10.0857 6 10.4209C6 11.0196 6.76628 13.9889 9.56793 17.916C11.4357 20.5979 14.0672 22.0517 16.4618 22.0517C17.8985 22.0517 18.0763 21.7288 18.0763 21.1726V19.1456C18.0763 18.4998 18.2124 18.371 18.6674 18.371C19.0026 18.371 19.5773 18.5386 20.9183 19.8317C22.4508 21.3642 22.7035 22.0517 23.5655 22.0517H25.8258C26.4715 22.0517 26.7944 21.7288 26.6082 21.0916C26.4043 20.4565 25.6726 19.5351 24.7017 18.4428C24.1749 17.8202 23.3847 17.1497 23.1452 16.8144C22.81 16.3835 22.9058 16.1919 23.1452 15.8088C23.1452 15.8088 25.899 11.9295 26.1864 10.6125Z" fill="#333"/>
</svg>
