<?xml version="1.0" standalone="no"?>
<!DOCTYPE svg PUBLIC "-//W3C//DTD SVG 20010904//EN"
 "http://www.w3.org/TR/2001/REC-SVG-20010904/DTD/svg10.dtd">
<svg version="1.0" xmlns="http://www.w3.org/2000/svg"
 width="24.000000pt" height="24.000000pt" viewBox="0 0 24.000000 24.000000"
 preserveAspectRatio="xMidYMid meet">

<g transform="translate(0.000000,24.000000) scale(0.100000,-0.100000)"
fill="#9C9CA9" stroke="none">
<path d="M70 140 c-17 -55 -35 -100 -40 -100 -6 0 -10 -3 -10 -7 0 -5 41 -7
91 -5 60 2 95 0 103 -8 8 -9 -17 -11 -102 -8 -61 2 -112 0 -112 -4 0 -5 54 -8
120 -8 120 0 141 7 100 32 -14 9 -31 46 -51 111 -24 77 -34 97 -49 97 -15 0
-25 -21 -50 -100z m64 74 c9 -23 8 -24 -14 -24 -11 0 -20 2 -20 4 0 12 13 36
20 36 4 0 11 -7 14 -16z m16 -44 c0 -5 -13 -10 -30 -10 -16 0 -30 5 -30 10 0
6 14 10 30 10 17 0 30 -4 30 -10z m10 -40 c0 -17 -7 -20 -40 -20 -27 0 -40 4
-40 13 0 21 11 27 47 27 26 0 33 -4 33 -20z m10 -40 c0 -5 -22 -10 -50 -10
-27 0 -50 5 -50 10 0 6 23 10 50 10 28 0 50 -4 50 -10z m14 -35 c4 -12 -6 -15
-59 -15 -51 0 -65 3 -65 15 0 22 115 22 124 0z"/>
</g>
</svg>
