<?xml version="1.0" standalone="no"?>
<!DOCTYPE svg PUBLIC "-//W3C//DTD SVG 20010904//EN"
 "http://www.w3.org/TR/2001/REC-SVG-20010904/DTD/svg10.dtd">
<svg version="1.0" xmlns="http://www.w3.org/2000/svg"
 width="920.000000pt" height="980.000000pt" viewBox="0 0 920.000000 980.000000"
 preserveAspectRatio="xMidYMid meet">

<g transform="translate(0.000000,980.000000) scale(0.100000,-0.100000)"
fill="#9C9CA9" stroke="#9C9CA9">
<path d="M2500 9782 c-48 -24 -98 -63 -940 -721 -777 -607 -1234 -972 -1337
-1066 -79 -71 -84 -101 -25 -157 88 -83 1538 -1225 1987 -1563 358 -270 436
-300 449 -173 8 76 16 470 16 770 l0 257 53 -4 c28 -2 241 -7 472 -10 827 -12
1211 -44 1689 -140 537 -109 1300 -350 1688 -533 390 -184 734 -433 1022 -742
469 -501 722 -1149 676 -1730 -21 -265 -70 -439 -200 -705 -126 -258 -196
-353 -474 -642 -86 -89 -161 -174 -166 -188 -15 -41 -12 -116 8 -155 9 -19 37
-48 60 -65 39 -27 52 -30 115 -30 88 0 138 23 277 128 131 98 386 357 493 498
699 932 874 2274 440 3374 -113 288 -291 589 -476 810 -524 622 -1538 1200
-2552 1454 -665 166 -1227 221 -2450 236 -399 5 -666 12 -671 18 -1 1 -4 227
-7 502 -4 344 -9 510 -17 533 -12 31 -53 62 -82 62 -8 0 -29 -8 -48 -18z"/>
<path d="M3535 5365 c-309 -95 -1926 -666 -2253 -796 -299 -118 -309 -151 -76
-244 257 -103 680 -256 1770 -641 l691 -244 779 276 c891 314 1537 545 1704
607 96 35 117 47 128 70 15 31 10 68 -13 90 -16 17 -168 74 -840 314 -1113
398 -1708 603 -1749 603 -17 -1 -80 -16 -141 -35z"/>
<path d="M683 3976 c-19 -17 -28 -37 -35 -77 -11 -72 -18 -2158 -8 -2519 4
-157 13 -310 19 -340 17 -87 42 -104 286 -194 744 -277 2311 -822 2413 -840
29 -5 34 -2 45 22 9 21 13 382 15 1523 l3 1495 -588 208 c-846 300 -1751 618
-1951 686 l-172 59 -27 -23z"/>
<path d="M6425 3933 c-184 -63 -1762 -620 -2215 -781 l-305 -108 -3 -1499 -2
-1499 22 -23 c18 -19 28 -22 53 -17 139 29 1371 459 2160 754 418 156 491 187
522 221 l21 24 5 1310 c3 721 2 1384 -2 1474 -6 155 -8 164 -30 182 -13 11
-33 19 -45 18 -11 0 -93 -25 -181 -56z"/>
</g>
</svg>
