<?xml version="1.0" standalone="no"?>
<!DOCTYPE svg PUBLIC "-//W3C//DTD SVG 20010904//EN"
 "http://www.w3.org/TR/2001/REC-SVG-20010904/DTD/svg10.dtd">
<svg version="1.0" xmlns="http://www.w3.org/2000/svg"
 width="1024.000000pt" height="1024.000000pt" viewBox="0 0 1024.000000 1024.000000"
 preserveAspectRatio="xMidYMid meet">

<g transform="translate(0.000000,1024.000000) scale(0.100000,-0.100000)"
fill="#9C9CA9" stroke="none">
<path d="M4063 8664 c-23 -8 -62 -33 -86 -55 l-45 -39 -399 0 c-249 0 -412 -4
-436 -11 -21 -6 -56 -28 -77 -49 l-39 -39 -423 -3 -423 -3 -391 -152 c-216
-83 -410 -161 -431 -172 -49 -25 -100 -81 -126 -140 -16 -35 -22 -74 -25 -163
l-4 -117 -467 -3 c-449 -3 -468 -4 -512 -24 -137 -64 -207 -214 -165 -357 22
-77 97 -158 172 -186 52 -20 75 -21 513 -21 l459 0 4 -122 c3 -74 10 -135 19
-153 27 -60 64 -107 103 -134 23 -16 225 -98 449 -185 l409 -156 419 0 420 0
31 -35 c38 -45 58 -55 117 -64 l46 -6 3 -541 2 -542 -172 -4 c-152 -3 -179 -7
-223 -26 -110 -50 -177 -152 -177 -271 1 -132 73 -230 203 -274 l44 -15 5
-1418 5 -1419 30 -53 c34 -63 71 -97 142 -129 l51 -24 584 3 c582 3 583 3 625
25 55 30 107 84 135 142 l23 46 3 1418 c2 1338 3 1417 20 1417 32 1 107 41
145 78 56 54 79 105 85 188 4 62 1 79 -23 133 -32 69 -85 123 -154 154 -39 18
-71 22 -218 25 l-173 4 0 271 0 270 88 -85 c182 -176 408 -293 662 -344 75
-15 188 -18 996 -21 l910 -4 63 -402 c34 -221 69 -423 77 -448 8 -25 29 -60
47 -77 61 -59 80 -62 367 -62 143 0 260 -3 260 -7 1 -5 45 -285 99 -623 l98
-615 -58 -57 c-144 -143 -215 -310 -226 -528 -4 -87 -1 -132 11 -184 56 -237
248 -422 520 -500 152 -45 189 -44 896 23 355 33 675 65 713 71 300 45 525
327 567 709 10 96 9 108 -214 1856 -224 1752 -225 1761 -231 2000 -17 757
-116 1364 -286 1759 -94 219 -222 375 -365 443 l-79 38 -2475 2 c-2166 1
-2480 0 -2517 -13z m-193 -1229 l0 -745 -244 0 c-134 0 -251 -3 -260 -6 -15
-6 -16 64 -16 745 l0 751 260 0 260 0 0 -745z m5058 593 c26 -54 82 -200 82
-214 0 -2 -208 -4 -462 -4 -512 0 -498 1 -516 -65 -11 -43 -4 -70 25 -99 l26
-26 491 -2 491 -3 17 -75 c9 -41 17 -83 17 -92 1 -17 -30 -18 -506 -18 -562 0
-543 2 -561 -65 -11 -43 -4 -70 25 -99 l26 -26 526 -2 526 -3 11 -85 c6 -47 9
-88 7 -92 -2 -5 -244 -8 -536 -8 -589 0 -567 2 -585 -65 -11 -43 -4 -70 25
-99 l26 -26 544 0 c426 0 544 -3 548 -12 2 -7 5 -41 7 -75 l4 -63 -547 0 -547
0 -30 -25 c-16 -14 -32 -37 -35 -52 -7 -35 15 -88 41 -102 14 -8 196 -11 570
-11 l549 0 7 -52 c3 -29 6 -110 6 -179 0 -106 37 -411 226 -1880 205 -1596
225 -1759 215 -1813 -14 -80 -50 -132 -98 -144 -21 -6 -318 -36 -661 -68 -673
-63 -674 -63 -743 -13 -24 17 -29 27 -28 62 0 23 6 60 13 82 10 36 16 40 52
46 63 11 109 34 158 79 51 47 82 107 91 176 9 70 -426 2829 -455 2890 -25 51
-82 109 -135 137 l-40 22 -1395 5 c-1552 7 -1427 1 -1585 74 -136 64 -255 177
-306 292 -49 110 -49 101 -49 1006 l0 848 2219 0 2218 0 31 -62z m-5970 -605
l-3 -458 -350 0 -350 0 -240 94 c-132 51 -246 96 -253 98 -10 4 -12 63 -10
266 l3 261 250 97 250 97 353 1 352 1 -2 -457z m790 -1690 l2 -543 -90 0 -90
0 0 545 0 546 88 -3 87 -3 3 -542z m3753 -748 c25 -159 44 -293 42 -297 -2 -5
-60 -8 -128 -8 -121 0 -125 1 -130 23 -3 12 -25 147 -48 300 l-44 278 131 -3
131 -3 46 -290z m-3631 -1610 l0 -1225 -210 0 -210 0 0 1225 0 1225 210 0 210
0 0 -1225z"/>
<path d="M5019 7781 c-21 -22 -29 -39 -29 -66 0 -27 8 -44 29 -66 l29 -29 417
0 417 0 29 29 c21 22 29 39 29 66 0 27 -8 44 -29 66 l-29 29 -417 0 -417 0
-29 -29z"/>
<path d="M5019 7401 c-21 -22 -29 -39 -29 -66 0 -27 8 -44 29 -66 l29 -29 417
0 417 0 29 29 c21 22 29 39 29 66 0 27 -8 44 -29 66 l-29 29 -417 0 -417 0
-29 -29z"/>
<path d="M5019 7021 c-21 -22 -29 -39 -29 -66 0 -27 8 -44 29 -66 l29 -29 417
0 417 0 29 29 c21 22 29 39 29 66 0 27 -8 44 -29 66 l-29 29 -417 0 -417 0
-29 -29z"/>
<path d="M5019 6681 c-38 -39 -39 -87 -3 -130 l26 -31 423 0 423 0 26 31 c36
43 35 91 -3 130 l-29 29 -417 0 -417 0 -29 -29z"/>
</g>
</svg>
