<?xml version="1.0" standalone="no"?>
<!DOCTYPE svg PUBLIC "-//W3C//DTD SVG 20010904//EN"
 "http://www.w3.org/TR/2001/REC-SVG-20010904/DTD/svg10.dtd">
<svg version="1.0" xmlns="http://www.w3.org/2000/svg"
 width="225.000000pt" height="225.000000pt" viewBox="0 0 225.000000 225.000000"
 preserveAspectRatio="xMidYMid meet">

<g transform="translate(0.000000,225.000000) scale(0.100000,-0.100000)"
fill="#000000" stroke="none">
<path d="M593 1387 c-288 -166 -523 -304 -523 -307 0 -5 1034 -604 1061 -615
16 -6 1061 593 1063 610 1 13 -1043 615 -1064 614 -8 0 -250 -136 -537 -302z
m1062 -14 l515 -297 -27 -17 c-16 -9 -247 -143 -515 -298 l-487 -282 -515 298
c-284 164 -516 300 -516 303 0 6 1012 589 1023 590 4 0 239 -134 522 -297z"/>
<path d="M1140 1591 c70 -14 77 -36 19 -58 -31 -12 -31 -13 -4 -7 17 4 36 7
43 7 19 1 14 45 -7 57 -11 5 -35 9 -53 9 l-33 -1 35 -7z"/>
<path d="M1082 1578 c-5 -7 -15 -45 -22 -85 -11 -59 -11 -75 0 -88 7 -8 18
-15 24 -15 6 0 3 5 -7 11 -16 9 -18 19 -12 58 10 73 13 80 38 74 l22 -5 -23
17 c-18 13 -21 20 -11 31 6 8 9 14 6 14 -2 0 -9 -6 -15 -12z"/>
<path d="M1212 1495 c0 -16 2 -22 5 -12 2 9 2 23 0 30 -3 6 -5 -1 -5 -18z"/>
<path d="M863 1475 c-20 -14 -43 -101 -43 -162 0 -20 37 -43 68 -42 9 0 1 6
-18 12 -35 12 -35 13 -33 67 4 78 6 81 42 67 23 -8 39 -9 60 0 25 9 31 8 34
-6 3 -9 5 -4 6 12 2 55 -67 87 -116 52z m78 -5 c10 -6 19 -17 19 -24 0 -28
-64 -35 -96 -11 -19 15 -19 15 0 30 23 18 50 19 77 5z"/>
<path d="M1366 1481 c41 -10 54 -19 54 -36 0 -26 -64 -34 -95 -11 -17 12 -18
16 -5 32 13 18 13 18 -4 3 -24 -22 -50 -157 -35 -176 6 -7 16 -13 22 -13 6 0
4 7 -4 15 -22 23 -4 140 20 129 32 -14 69 -16 89 -5 17 9 21 8 25 -7 2 -9 2
-1 0 18 -6 45 -11 50 -59 55 -35 4 -36 4 -8 -4z"/>
<path d="M1221 1433 c0 -12 -9 -27 -18 -32 -10 -6 -13 -11 -7 -11 18 0 36 27
31 47 -4 14 -5 14 -6 -4z"/>
<path d="M982 1370 c0 -14 2 -19 5 -12 2 6 2 18 0 25 -3 6 -5 1 -5 -13z"/>
<path d="M1118 1383 c12 -2 32 -2 45 0 12 2 2 4 -23 4 -25 0 -35 -2 -22 -4z"/>
<path d="M1442 1350 c0 -14 2 -19 5 -12 2 6 2 18 0 25 -3 6 -5 1 -5 -13z"/>
<path d="M680 1323 c58 -7 79 -36 38 -53 -13 -5 -18 -9 -11 -9 24 -2 43 12 43
30 0 24 -30 39 -72 37 l-33 -1 35 -4z"/>
<path d="M991 1318 c-1 -9 -9 -22 -18 -27 -10 -6 -13 -11 -7 -11 17 0 37 27
31 42 -4 8 -6 7 -6 -4z"/>
<path d="M1140 1321 c70 -14 77 -36 19 -58 -31 -12 -31 -13 -4 -7 17 4 36 7
43 7 19 1 14 45 -7 57 -11 5 -35 9 -53 9 l-33 -1 35 -7z"/>
<path d="M1550 1320 c-11 -7 -6 -8 17 -4 65 13 109 -18 66 -46 -16 -10 -16
-11 4 -7 23 5 23 4 38 -84 6 -33 4 -37 -22 -47 -15 -6 -44 -13 -63 -15 l-35
-4 38 -1 c21 -1 52 5 68 14 27 14 30 19 25 47 -3 18 -8 52 -12 77 -4 25 -14
53 -22 63 -17 19 -77 23 -102 7z"/>
<path d="M1082 1308 c-5 -7 -15 -45 -22 -85 -11 -59 -11 -75 0 -88 7 -8 18
-15 24 -15 6 0 3 5 -7 11 -16 9 -18 19 -12 58 10 73 13 80 38 74 l22 -5 -23
17 c-18 13 -21 20 -11 31 6 8 9 14 6 14 -2 0 -9 -6 -15 -12z"/>
<path d="M1530 1288 c0 -17 36 -35 47 -24 4 3 -1 6 -10 6 -9 0 -21 8 -26 18
-9 15 -10 16 -11 0z"/>
<path d="M601 1218 c-14 -88 -7 -99 71 -104 l53 -3 -48 8 c-68 10 -78 23 -65
94 9 52 12 57 32 51 21 -6 21 -6 1 10 -11 8 -23 16 -26 16 -3 0 -11 -32 -18
-72z"/>
<path d="M928 1273 c7 -3 16 -2 19 1 4 3 -2 6 -13 5 -11 0 -14 -3 -6 -6z"/>
<path d="M1328 1273 c6 -2 18 -2 25 0 6 3 1 5 -13 5 -14 0 -19 -2 -12 -5z"/>
<path d="M1378 1273 c6 -2 18 -2 25 0 6 3 1 5 -13 5 -14 0 -19 -2 -12 -5z"/>
<path d="M752 1240 c0 -14 2 -19 5 -12 2 6 2 18 0 25 -3 6 -5 1 -5 -13z"/>
<path d="M1522 1235 c0 -16 2 -22 5 -12 2 9 2 23 0 30 -3 6 -5 -1 -5 -18z"/>
<path d="M1212 1225 c0 -16 2 -22 5 -12 2 9 2 23 0 30 -3 6 -5 -1 -5 -18z"/>
<path d="M402 1204 c-14 -9 -22 -25 -21 -42 0 -15 3 -22 5 -16 4 9 13 9 34 1
22 -8 38 -8 60 0 27 10 31 9 35 -10 3 -12 7 -42 8 -67 2 -43 0 -45 -33 -57
-25 -8 -29 -12 -14 -12 12 -1 32 7 44 17 22 17 22 20 10 95 -10 58 -18 82 -34
92 -27 19 -66 19 -94 -1z m94 -9 c19 -15 19 -15 0 -30 -11 -8 -32 -15 -46 -15
-14 0 -35 7 -46 15 -19 15 -19 15 0 30 11 8 32 15 46 15 14 0 35 -7 46 -15z"/>
<path d="M863 1205 c-20 -14 -43 -101 -43 -162 0 -20 37 -43 68 -42 9 0 1 6
-18 12 -35 12 -35 13 -33 67 4 78 6 81 42 67 23 -8 39 -9 60 0 25 9 31 8 34
-6 3 -9 5 -4 6 12 2 55 -67 87 -116 52z m78 -5 c10 -6 19 -17 19 -24 0 -28
-64 -35 -96 -11 -19 15 -19 15 0 30 23 18 50 19 77 5z"/>
<path d="M1366 1211 c41 -10 54 -19 54 -36 0 -26 -64 -34 -95 -11 -17 12 -18
16 -5 32 13 18 13 18 -4 3 -24 -22 -50 -157 -35 -176 6 -7 16 -13 22 -13 6 0
4 7 -4 15 -22 23 -4 140 20 129 32 -14 69 -16 89 -5 17 9 21 8 25 -7 2 -9 2
-1 0 18 -6 45 -11 50 -59 55 -35 4 -36 4 -8 -4z"/>
<path d="M1828 1210 c67 -16 67 -44 0 -61 -31 -8 -31 -8 -3 -5 17 2 37 5 45 7
20 6 38 -95 22 -122 -10 -15 -9 -17 3 -13 18 7 19 36 4 119 -11 66 -31 86 -82
84 -15 -1 -11 -4 11 -9z"/>
<path d="M762 1185 c0 -16 2 -22 5 -12 2 9 2 23 0 30 -3 6 -5 -1 -5 -18z"/>
<path d="M1759 1183 c-5 -14 -8 -34 -6 -42 4 -13 5 -13 6 1 1 12 6 15 17 11
14 -5 14 -3 2 16 -11 18 -11 23 2 31 10 7 11 10 2 10 -7 0 -17 -12 -23 -27z"/>
<path d="M1511 1175 c-1 -31 14 -55 33 -55 5 0 2 6 -6 13 -9 6 -19 26 -21 42
l-4 30 -2 -30z"/>
<path d="M1221 1163 c0 -12 -9 -27 -18 -32 -10 -6 -13 -11 -7 -11 18 0 36 27
31 47 -4 14 -5 14 -6 -4z"/>
<path d="M746 1135 c-11 -8 -15 -15 -9 -15 6 0 16 7 23 15 16 19 11 19 -14 0z"/>
<path d="M365 1083 c-6 -41 -4 -50 15 -65 12 -10 32 -18 44 -17 15 0 11 4 -14
12 -35 12 -35 13 -32 65 3 65 -3 68 -13 5z"/>
<path d="M982 1100 c0 -14 2 -19 5 -12 2 6 2 18 0 25 -3 6 -5 1 -5 -13z"/>
<path d="M1118 1113 c12 -2 32 -2 45 0 12 2 2 4 -23 4 -25 0 -35 -2 -22 -4z"/>
<path d="M1742 1095 c0 -16 2 -22 5 -12 2 9 2 23 0 30 -3 6 -5 -1 -5 -18z"/>
<path d="M1442 1080 c0 -14 2 -19 5 -12 2 6 2 18 0 25 -3 6 -5 1 -5 -13z"/>
<path d="M629 1063 c-11 -15 -11 -16 1 -5 20 17 85 15 101 -4 10 -13 10 -17
-2 -25 -19 -12 -86 -11 -94 1 -13 21 -23 8 -30 -37 -3 -27 -9 -57 -11 -69 -5
-21 18 -54 38 -54 6 0 1 8 -11 18 -20 16 -21 21 -10 72 l11 55 63 0 c56 0 65
-3 68 -20 3 -11 2 -2 0 20 -2 21 -9 45 -15 52 -16 20 -93 17 -109 -4z"/>
<path d="M1087 1065 c-13 -13 -37 -115 -37 -158 0 -16 37 -43 47 -34 2 3 -5 8
-17 12 -20 6 -21 12 -15 53 11 80 8 77 80 76 62 -1 65 0 65 22 0 13 -9 28 -19
34 -29 15 -87 12 -104 -5z m102 -8 c16 -20 -6 -37 -50 -37 -42 0 -66 19 -47
38 16 16 83 15 97 -1z"/>
<path d="M1600 1071 c36 -5 45 -10 45 -26 0 -15 -8 -21 -29 -23 -48 -6 -79 6
-73 28 3 11 1 18 -4 14 -5 -3 -9 -14 -9 -24 0 -22 52 -36 100 -27 31 7 27 13
46 -82 4 -23 0 -33 -18 -45 -12 -9 -17 -16 -11 -16 21 0 45 32 39 54 -3 12 -8
45 -12 74 -8 67 -24 82 -77 80 l-42 -1 45 -6z"/>
<path d="M991 1048 c-1 -9 -9 -22 -18 -27 -10 -6 -13 -11 -7 -11 17 0 37 27
31 42 -4 8 -6 7 -6 -4z"/>
<path d="M1731 1048 c-1 -22 37 -48 69 -47 27 1 22 4 -23 13 -16 4 -32 16 -37
29 -6 16 -9 18 -9 5z"/>
<path d="M928 1003 c7 -3 16 -2 19 1 4 3 -2 6 -13 5 -11 0 -14 -3 -6 -6z"/>
<path d="M1328 1003 c6 -2 18 -2 25 0 6 3 1 5 -13 5 -14 0 -19 -2 -12 -5z"/>
<path d="M1378 1003 c6 -2 18 -2 25 0 6 3 1 5 -13 5 -14 0 -19 -2 -12 -5z"/>
<path d="M1514 954 c-3 -30 -3 -59 2 -64 5 -5 10 19 11 56 1 35 0 64 -2 64 -2
0 -7 -25 -11 -56z"/>
<path d="M1838 1003 c6 -2 18 -2 25 0 6 3 1 5 -13 5 -14 0 -19 -2 -12 -5z"/>
<path d="M1212 975 c0 -16 2 -22 5 -12 2 9 2 23 0 30 -3 6 -5 -1 -5 -18z"/>
<path d="M858 958 c-24 -19 -46 -161 -29 -182 8 -9 18 -16 24 -16 6 0 3 6 -7
13 -17 12 -18 21 -10 73 8 55 11 59 34 57 25 -3 25 -3 3 7 -43 18 -23 50 32
50 53 0 73 -27 38 -50 -17 -11 -16 -11 1 -5 11 3 23 0 28 -7 5 -9 8 -6 8 10 0
50 -80 82 -122 50z"/>
<path d="M1317 958 c-18 -13 -49 -150 -40 -174 7 -19 57 -36 94 -31 33 4 32 4
-6 5 -22 1 -50 8 -61 16 -19 14 -20 20 -11 76 8 47 13 60 24 55 8 -3 27 -7 41
-10 20 -4 18 -2 -7 8 -57 22 -51 56 11 57 55 0 77 -27 41 -50 -16 -10 -15 -10
4 -5 15 4 23 1 26 -12 2 -10 2 -2 0 17 -5 42 -26 60 -68 60 -17 0 -39 -6 -48
-12z"/>
<path d="M762 935 c0 -16 2 -22 5 -12 2 9 2 23 0 30 -3 6 -5 -1 -5 -18z"/>
<path d="M1221 919 c0 -16 -9 -30 -23 -37 -13 -6 -18 -11 -12 -11 23 -2 46 25
41 50 l-4 24 -2 -26z"/>
<path d="M982 855 c0 -16 2 -22 5 -12 2 9 2 23 0 30 -3 6 -5 -1 -5 -18z"/>
<path d="M663 863 c9 -2 25 -2 35 0 9 3 1 5 -18 5 -19 0 -27 -2 -17 -5z"/>
<path d="M1123 863 c9 -2 23 -2 30 0 6 3 -1 5 -18 5 -16 0 -22 -2 -12 -5z"/>
<path d="M1583 863 c9 -2 23 -2 30 0 6 3 -1 5 -18 5 -16 0 -22 -2 -12 -5z"/>
<path d="M1442 830 c0 -14 2 -19 5 -12 2 6 2 18 0 25 -3 6 -5 1 -5 -13z"/>
<path d="M1086 821 c-4 -5 3 -7 14 -4 23 6 26 13 6 13 -8 0 -17 -4 -20 -9z"/>
<path d="M1175 818 c29 -16 29 -16 15 -33 -16 -19 -69 -19 -97 0 -20 14 -21
13 -32 -48 -6 -35 -11 -71 -11 -80 0 -17 29 -37 52 -36 7 0 3 4 -10 9 -31 13
-35 30 -22 94 10 51 13 55 31 46 10 -6 39 -9 64 -8 38 3 45 6 45 24 0 24 -18
44 -39 44 -12 -1 -11 -4 4 -12z"/>
<path d="M1426 775 c-11 -8 -15 -15 -9 -15 6 0 16 7 23 15 16 19 11 19 -14 0z"/>
<path d="M888 753 c12 -2 32 -2 45 0 12 2 2 4 -23 4 -25 0 -35 -2 -22 -4z"/>
<path d="M1212 725 c0 -16 2 -22 5 -12 2 9 2 23 0 30 -3 6 -5 -1 -5 -18z"/>
<path d="M1221 675 c0 -12 -5 -26 -11 -33 -5 -7 -3 -6 6 2 9 7 14 22 11 32 -4
17 -5 17 -6 -1z"/>
</g>
</svg>
