<svg width="24" height="24" viewBox="0 0 24 24" fill="none" xmlns="http://www.w3.org/2000/svg">
<rect x="3" y="6.99998" width="2" height="11" fill="#9C9CA9"/>
<rect x="19" y="6.99998" width="2" height="11" fill="#9C9CA9"/>
<path fill-rule="evenodd" clip-rule="evenodd" d="M12 6.71427C9.66607 6.71427 7.71056 8.23319 7.08547 10.2907L6.86997 11H6.12865H5H2V8.99999H5H5.43066C6.5127 6.47431 9.05336 4.71427 12 4.71427C14.9466 4.71427 17.4873 6.47431 18.5694 8.99999H19H22V11H19H17.8714H17.13L16.9145 10.2907C16.2894 8.23319 14.3339 6.71427 12 6.71427ZM5 13H6.12865H6.86997L7.08547 13.7093C7.71056 15.7668 9.66607 17.2857 12 17.2857C14.3339 17.2857 16.2894 15.7668 16.9145 13.7093L17.13 13H17.8714H19H22V15H19H18.5694C17.4873 17.5257 14.9466 19.2857 12 19.2857C9.05336 19.2857 6.5127 17.5257 5.43066 15H5H2V13H5Z" fill="#9C9CA9"/>
<rect x="2" y="4.99998" width="4" height="2" fill="#9C9CA9"/>
<rect x="18" y="4.99998" width="4" height="2" fill="#9C9CA9"/>
</svg>
