<svg width="24" height="24" viewBox="0 0 24 24" fill="none" xmlns="http://www.w3.org/2000/svg">
<path d="M13.7588 7.30959L14.9999 4.00001M16.3526 9.55163L16.3586 9.54827M16.3586 9.54827L19.9999 7.50001M16.3586 9.54827C15.5011 8.02719 13.8705 7.00001 11.9999 7.00001C11.382 7.00001 10.7902 7.11212 10.2438 7.3171M16.3586 9.54827C16.7669 10.2727 16.9999 11.1091 16.9999 12C16.9999 12.2791 16.9771 12.5529 16.9331 12.8196L20.6391 13.4398C20.7218 13.0621 20.914 12.7074 21.2068 12.426L21.6694 11.9813C22.6944 10.996 22.3928 9.28579 21.0926 8.71047L20.5059 8.45083C19.7104 8.09886 19.2337 7.27312 19.3266 6.40826L19.3951 5.77027C19.547 4.35659 18.2167 3.24036 16.8509 3.6354L16.2345 3.81368C15.3989 4.05535 14.5029 3.72924 14.0182 3.00701L13.6606 2.47423C12.8682 1.29367 11.1317 1.29367 10.3393 2.47423L9.98171 3.007C9.49696 3.72924 8.60097 4.05535 7.76539 3.81368L7.14899 3.6354C5.78316 3.24036 4.45289 4.35659 4.60475 5.77027L4.67329 6.40826C4.76619 7.27312 4.28945 8.09886 3.49401 8.45083L2.90723 8.71047C1.60701 9.28579 1.30546 10.996 2.3305 11.9813L2.79309 12.426C3.42018 13.0288 3.58575 13.9678 3.20265 14.7487L2.92004 15.3248C2.29383 16.6012 3.1621 18.1051 4.58068 18.2011L5.22087 18.2443C6.08872 18.303 6.81913 18.9159 7.02763 19.7604L7.18143 20.3834C7.52224 21.7637 9.15405 22.3577 10.3024 21.5193L10.8207 21.1409C11.5232 20.6281 12.4767 20.6281 13.1792 21.1409L13.6975 21.5193C14.8458 22.3577 16.4776 21.7637 16.8184 20.3834L16.9722 19.7604C17.0777 19.3331 17.3168 18.9651 17.6397 18.6982L15.2304 15.8164C14.359 16.5548 13.2315 17 11.9999 17M11.9999 17V21M11.9999 17C10.7687 17 9.64142 16.555 8.77015 15.817M8.77121 15.8158L8.77015 15.817M8.77015 15.817L6.49993 18.5M8.77015 15.817C7.88547 15.0677 7.26518 14.0163 7.06763 12.8221M7.06763 12.8221L2.99993 13.5M7.06763 12.8221C7.02338 12.5546 6.99993 12.28 6.99993 12C6.99993 11.1091 7.23292 10.2727 7.64128 9.54828M7.64565 9.55074L7.64128 9.54828M7.64128 9.54828L3.99991 7.50001M7.64128 9.54828C8.21546 8.5297 9.13635 7.7326 10.2438 7.3171M10.2447 7.31936L10.2438 7.3171M10.2438 7.3171L8.99993 4.00001" stroke="#9C9CA9" stroke-width="2"/>
<path d="M18 19L13 13L13.5 10.5" stroke="#9C9CA9" stroke-width="2"/>
</svg>
