<?xml version="1.0" standalone="no"?>
<!DOCTYPE svg PUBLIC "-//W3C//DTD SVG 20010904//EN"
 "http://www.w3.org/TR/2001/REC-SVG-20010904/DTD/svg10.dtd">
<svg version="1.0" xmlns="http://www.w3.org/2000/svg"
 width="900.000000pt" height="900.000000pt" viewBox="0 0 900.000000 900.000000"
 preserveAspectRatio="xMidYMid meet">

<g transform="translate(0.000000,900.000000) scale(0.100000,-0.100000)"
fill="#9C9CA9" stroke="none">
<path d="M4235 8994 c-573 -47 -1022 -153 -1490 -351 -1425 -605 -2456 -1925
-2689 -3443 -14 -91 -31 -221 -38 -290 -17 -161 -17 -656 0 -820 72 -699 278
-1329 624 -1902 490 -814 1238 -1465 2103 -1831 227 -96 389 -150 650 -217
946 -242 1948 -166 2856 216 702 295 1330 780 1807 1394 523 673 833 1460 924
2340 17 163 17 658 0 820 -52 500 -157 915 -339 1345 -449 1058 -1308 1922
-2363 2377 -420 182 -835 290 -1320 344 -129 15 -617 26 -725 18z m530 -394
c1082 -69 2099 -570 2819 -1390 453 -515 775 -1143 921 -1793 74 -330 100
-569 99 -922 0 -361 -29 -615 -110 -955 -193 -812 -654 -1575 -1284 -2124
-286 -249 -570 -440 -895 -600 -1459 -721 -3202 -511 -4455 538 -186 156 -433
412 -591 611 -739 938 -1034 2171 -798 3340 137 678 436 1298 883 1835 104
125 345 368 471 476 828 705 1865 1052 2940 984z"/>
<path d="M3835 7923 c-25 -7 -80 -44 -225 -152 -654 -488 -876 -790 -1035
-1415 l-40 -159 -54 -13 c-96 -25 -103 -33 -187 -208 -340 -711 -544 -1412
-619 -2129 -22 -210 -36 -611 -27 -748 9 -131 26 -176 93 -245 38 -39 40 -44
50 -135 100 -919 714 -1492 1739 -1623 703 -91 1572 70 2295 424 620 303 1075
709 1295 1155 105 214 152 410 153 635 0 278 -76 533 -237 800 -50 83 -56 99
-49 125 9 30 9 30 94 35 73 5 92 10 125 32 162 113 232 424 139 609 -29 57
-60 82 -127 105 -48 16 -50 17 -44 48 31 152 57 308 57 341 0 81 -73 298 -158
470 -345 695 -1142 1207 -1933 1242 -559 24 -1038 -210 -1334 -652 -103 -153
-216 -418 -265 -621 l-23 -91 -53 -12 c-40 -9 -54 -17 -59 -34 -6 -22 -96
-365 -222 -847 -35 -135 -78 -300 -95 -367 l-31 -123 73 -126 72 -127 -52
-246 c-28 -135 -74 -354 -102 -486 -28 -134 -55 -295 -61 -363 -25 -282 38
-562 154 -688 42 -45 93 -65 303 -118 301 -76 517 -101 850 -100 222 0 294 4
405 21 545 85 1000 282 1420 614 128 101 384 350 451 439 51 67 157 268 200
378 13 34 27 62 30 62 10 0 48 -189 55 -271 13 -156 -29 -347 -115 -524 -223
-455 -791 -877 -1496 -1108 -260 -85 -403 -120 -675 -162 -654 -103 -1286 -12
-1701 245 -295 183 -500 451 -594 778 -19 68 -35 132 -35 143 0 12 17 27 51
44 58 30 130 93 158 139 11 18 32 103 50 206 45 246 140 761 146 788 5 19 12
22 53 22 111 1 234 36 295 84 34 26 41 222 42 1131 l0 850 -51 61 -51 62 38
146 c77 289 174 516 293 691 114 167 353 394 654 623 63 47 120 98 128 114 33
64 3 158 -64 203 -38 25 -109 39 -147 28z m-993 -2346 l43 -33 6 -154 c4 -85
8 -222 10 -305 l4 -150 -79 -12 c-43 -7 -83 -16 -87 -20 -7 -7 -35 -169 -100
-575 -6 -38 -15 -70 -20 -74 -5 -3 -62 -21 -127 -39 -99 -29 -119 -32 -131
-20 -15 14 -22 -14 119 455 32 107 109 364 170 570 62 206 114 378 117 382 9
15 32 7 75 -25z m1178 -7 c723 -34 1203 -61 1220 -70 58 -31 62 -79 21 -252
-58 -240 -139 -585 -171 -722 -42 -180 -58 -201 -151 -198 -35 1 -253 20 -484
42 -231 22 -573 54 -760 71 -187 17 -351 36 -365 42 -14 7 -33 29 -43 49 l-18
37 40 148 c38 143 186 672 217 781 24 80 52 95 174 88 52 -3 196 -11 320 -16z
m1643 -206 c65 -58 117 -109 117 -113 0 -5 -18 -105 -40 -222 -21 -118 -50
-279 -64 -359 -109 -625 -126 -699 -159 -700 -8 0 -317 288 -317 296 0 10 157
675 239 1014 40 164 52 190 91 190 10 0 69 -47 133 -106z m1089 -354 c-49 -65
-107 -182 -128 -257 -8 -32 -15 -101 -16 -153 -1 -123 -18 -88 -25 51 -8 140
22 244 94 329 29 35 103 93 110 86 2 -2 -13 -27 -35 -56z m494 -96 c71 -34
112 -186 85 -315 -26 -123 -107 -238 -179 -254 -66 -14 -122 42 -149 151 -38
155 39 369 152 420 39 17 50 17 91 -2z m-3580 -619 c186 -19 566 -58 844 -85
278 -28 522 -53 542 -56 30 -5 55 -25 138 -109 91 -93 100 -106 90 -124 -13
-26 -10 -26 -270 4 -118 14 -316 36 -440 50 -726 79 -1227 139 -1239 149 -7 5
-31 48 -52 95 -43 93 -41 111 16 111 17 0 184 -16 371 -35z m-813 0 c49 -20
86 -53 107 -96 29 -56 25 -65 -15 -30 -52 45 -87 60 -170 74 -71 11 -75 13
-75 38 0 14 3 29 8 33 10 10 106 -2 145 -19z m103 -219 c3 -14 3 -30 -1 -36
-11 -18 -77 -47 -133 -59 -78 -16 -85 -12 -17 11 74 25 113 52 121 84 8 31 22
31 30 0z"/>
</g>
</svg>
