<?xml version="1.0" encoding="UTF-8"?>
<!DOCTYPE svg PUBLIC "-//W3C//DTD SVG 1.1//EN" "http://www.w3.org/Graphics/SVG/1.1/DTD/svg11.dtd">
<svg xmlns="http://www.w3.org/2000/svg" version="1.1" width="512px" height="512px" style="shape-rendering:geometricPrecision; text-rendering:geometricPrecision; image-rendering:optimizeQuality; fill-rule:evenodd; clip-rule:evenodd" xmlns:xlink="http://www.w3.org/1999/xlink">
<g><path style="opacity:0.977" fill="#4c4d54" d="M 219.5,111.5 C 291.501,111.333 363.501,111.5 435.5,112C 438.521,113.539 439.854,116.039 439.5,119.5C 466.867,117.729 490.2,126.395 509.5,145.5C 505.833,149.833 501.833,153.833 497.5,157.5C 481.221,142.37 461.888,135.037 439.5,135.5C 439.5,140.833 439.5,146.167 439.5,151.5C 468.934,151.718 492.601,163.384 510.5,186.5C 506.386,190.064 502.052,193.397 497.5,196.5C 482.296,178.981 463.129,169.315 440,167.5C 439.883,170.911 438.383,173.411 435.5,175C 400.833,175.333 366.167,175.667 331.5,176C 326.468,181.367 321.135,186.367 315.5,191C 288.833,191.667 262.167,191.667 235.5,191C 234.584,190.626 233.75,190.126 233,189.5C 228.538,182.074 223.705,174.908 218.5,168C 197.124,167.057 175.791,167.391 154.5,169C 151.268,170.23 148.601,172.23 146.5,175C 148.57,175.948 150.07,177.448 151,179.5C 151.667,208.833 151.667,238.167 151,267.5C 150.5,269.333 149.333,270.5 147.5,271C 140.842,271.5 134.175,271.666 127.5,271.5C 127.5,276.833 127.5,282.167 127.5,287.5C 122.167,287.5 116.833,287.5 111.5,287.5C 111.5,282.167 111.5,276.833 111.5,271.5C 104.825,271.666 98.1583,271.5 91.5,271C 89.6667,270.5 88.5,269.333 88,267.5C 87.3333,238.167 87.3333,208.833 88,179.5C 89.5388,176.479 92.0388,175.146 95.5,175.5C 100.717,145.117 118.383,126.617 148.5,120C 170.831,119.5 193.164,119.333 215.5,119.5C 215.278,115.944 216.611,113.277 219.5,111.5 Z M 231.5,127.5 C 295.5,127.5 359.5,127.5 423.5,127.5C 423.5,138.167 423.5,148.833 423.5,159.5C 393.826,159.833 364.159,159.5 334.5,158.5C 331.215,151.38 325.882,146.547 318.5,144C 296.167,143.333 273.833,143.333 251.5,144C 250.584,144.374 249.75,144.874 249,145.5C 245.755,152.324 242.255,158.991 238.5,165.5C 235.856,162.891 233.689,159.891 232,156.5C 231.5,146.839 231.334,137.172 231.5,127.5 Z M 159.5,135.5 C 178.167,135.5 196.833,135.5 215.5,135.5C 215.5,140.833 215.5,146.167 215.5,151.5C 194.164,151.333 172.831,151.5 151.5,152C 138.892,155.107 131.225,162.94 128.5,175.5C 123.156,175.666 117.823,175.499 112.5,175C 119.264,151.057 134.931,137.89 159.5,135.5 Z M 260.5,159.5 C 277.503,159.333 294.503,159.5 311.5,160C 314.249,160.364 316.249,161.697 317.5,164C 314.549,167.954 311.216,171.621 307.5,175C 289.491,175.833 271.491,175.666 253.5,174.5C 256.118,169.599 258.452,164.599 260.5,159.5 Z M 103.5,191.5 C 114.167,191.5 124.833,191.5 135.5,191.5C 135.5,212.833 135.5,234.167 135.5,255.5C 124.833,255.5 114.167,255.5 103.5,255.5C 103.5,234.167 103.5,212.833 103.5,191.5 Z"/></g>
<g><path style="opacity:0.955" fill="#4c4d54" d="M 55.5,247.5 C 60.8333,247.5 66.1667,247.5 71.5,247.5C 71.9609,260.266 71.4609,272.933 70,285.5C 67.7534,286.98 65.2534,287.647 62.5,287.5C 55.2505,286.617 48.0838,285.283 41,283.5C 40.5,283.833 40,284.167 39.5,284.5C 42.039,289.745 44.7057,294.912 47.5,300C 42.5,302.5 37.5,305 32.5,307.5C 26.7447,296.99 21.2447,286.323 16,275.5C 13.7413,267.645 16.5746,263.645 24.5,263.5C 34.8121,264.929 44.9788,266.929 55,269.5C 55.4997,262.174 55.6663,254.841 55.5,247.5 Z"/></g>
<g><path style="opacity:0.943" fill="#4c4d54" d="M 159.5,247.5 C 165.167,247.5 170.833,247.5 176.5,247.5C 176.5,254.5 176.5,261.5 176.5,268.5C 186.492,266.835 196.492,265.169 206.5,263.5C 212.485,262.828 215.819,265.495 216.5,271.5C 211.027,283.779 205.027,295.779 198.5,307.5C 193.5,305 188.5,302.5 183.5,300C 186.294,294.912 188.961,289.745 191.5,284.5C 191,284.167 190.5,283.833 190,283.5C 182.916,285.283 175.75,286.617 168.5,287.5C 165.747,287.647 163.247,286.98 161,285.5C 159.539,272.933 159.039,260.266 159.5,247.5 Z"/></g>
<g><path style="opacity:0.992" fill="#4c4d54" d="M 11.5,319.5 C 38.1687,319.333 64.8354,319.5 91.5,320C 92.4162,320.374 93.2496,320.874 94,321.5C 102.245,338.323 110.745,354.989 119.5,371.5C 128.255,354.989 136.755,338.323 145,321.5C 145.75,320.874 146.584,320.374 147.5,320C 264.833,319.333 382.167,319.333 499.5,320C 501.333,320.5 502.5,321.667 503,323.5C 503.667,347.5 503.667,371.5 503,395.5C 502.5,397.333 501.333,398.5 499.5,399C 336.833,399.667 174.167,399.667 11.5,399C 9.66667,398.5 8.5,397.333 8,395.5C 7.33333,371.5 7.33333,347.5 8,323.5C 8.68972,321.65 9.85639,320.316 11.5,319.5 Z M 23.5,335.5 C 43.178,335.167 62.8446,335.5 82.5,336.5C 90.1667,351.833 97.8333,367.167 105.5,382.5C 78.1748,383.5 50.8415,383.833 23.5,383.5C 23.5,367.5 23.5,351.5 23.5,335.5 Z M 156.5,335.5 C 266.833,335.5 377.167,335.5 487.5,335.5C 487.5,351.5 487.5,367.5 487.5,383.5C 369.498,383.833 251.498,383.5 133.5,382.5C 141.45,366.934 149.117,351.268 156.5,335.5 Z"/></g>
</svg>
