<?xml version="1.0" standalone="no"?>
<!DOCTYPE svg PUBLIC "-//W3C//DTD SVG 20010904//EN"
 "http://www.w3.org/TR/2001/REC-SVG-20010904/DTD/svg10.dtd">
<svg version="1.0" xmlns="http://www.w3.org/2000/svg"
 width="700.000000pt" height="700.000000pt" viewBox="0 0 700.000000 700.000000"
 preserveAspectRatio="xMidYMid meet">
<metadata>
Created by potrace 1.11, written by Peter Selinger 2001-2013
</metadata>
<g transform="translate(0.000000,700.000000) scale(0.100000,-0.100000)"
fill="#000000" stroke="none">
<path d="M560 3938 l0 -1608 583 0 582 0 0 970 c0 533 3 970 6 970 3 0 19 -15
34 -32 42 -48 228 -252 304 -334 36 -39 104 -112 151 -164 47 -51 110 -121
141 -154 30 -34 89 -98 130 -142 l74 -82 34 37 c54 56 137 146 241 260 52 57
108 118 124 135 15 17 44 49 65 71 197 217 262 288 306 333 27 29 52 58 53 63
17 45 21 -61 21 -502 0 -282 2 -514 5 -516 2 -2 24 1 47 8 24 7 49 13 54 14 6
2 66 19 135 38 69 20 208 59 310 87 102 29 241 67 310 87 69 19 157 43 195 53
39 10 79 22 90 26 20 9 20 15 20 997 0 652 -3 987 -10 988 -5 1 -268 2 -583 3
l-574 1 -126 -134 c-70 -74 -143 -151 -162 -172 -19 -21 -87 -93 -150 -161
-63 -67 -146 -156 -185 -198 -38 -41 -103 -110 -144 -153 l-75 -78 -55 59
c-31 32 -103 110 -161 172 -58 62 -121 129 -140 149 -57 60 -267 285 -296 317
-15 16 -63 67 -108 114 l-81 85 -583 0 -582 0 0 -1607z"/>
<path d="M5460 4220 c0 -327 -1 -350 -17 -350 -10 -1 -187 -1 -394 0 -293 0
-378 -3 -381 -13 -3 -10 -2 -606 1 -643 1 -7 125 -10 394 -10 l392 0 3 -437 2
-437 415 0 415 0 1 23 c0 12 0 164 0 337 0 343 -8 415 -57 526 -49 112 -140
218 -231 270 -78 45 -78 44 -27 70 165 84 286 256 309 440 5 42 9 402 6 537
l-1 37 -415 0 -415 0 0 -350z"/>
<path d="M4500 3134 c-43 -14 -499 -142 -530 -149 -8 -1 -78 -21 -155 -43 -77
-22 -192 -54 -255 -72 -63 -17 -123 -34 -132 -36 -15 -4 -18 -17 -18 -75 0
-39 4 -68 8 -65 8 4 63 20 267 77 113 31 219 60 270 73 33 9 81 23 106 32 25
8 54 16 65 18 63 13 440 121 445 128 4 7 5 92 0 121 -1 10 -18 8 -71 -9z"/>
<path d="M4555 2605 c-5 -2 -93 -27 -195 -55 -102 -28 -223 -62 -270 -75 -47
-13 -218 -61 -380 -105 -162 -45 -296 -83 -298 -85 -4 -4 -4 -126 0 -130 2 -2
73 16 158 41 85 24 164 46 175 49 37 9 128 34 330 90 110 31 207 58 215 60 8
2 52 15 98 28 45 14 85 25 87 26 41 8 95 25 96 30 5 22 4 131 0 130 -4 0 -10
-2 -16 -4z"/>
<path d="M4310 1994 c-124 -35 -241 -68 -260 -73 -19 -5 -78 -22 -130 -36 -52
-14 -102 -28 -110 -30 -36 -9 -302 -84 -370 -104 -25 -8 -25 -8 -28 -149 -1
-86 1 -142 7 -142 5 0 155 41 333 90 178 50 330 93 338 95 109 27 455 126 470
134 12 7 15 34 15 145 0 130 -1 136 -20 135 -11 -1 -121 -30 -245 -65z"/>
</g>
</svg>
